<?xml version="1.0" standalone="no"?>
<!DOCTYPE svg PUBLIC "-//W3C//DTD SVG 20010904//EN"
 "http://www.w3.org/TR/2001/REC-SVG-20010904/DTD/svg10.dtd">
<svg version="1.0" xmlns="http://www.w3.org/2000/svg"
 width="983.000000pt" height="983.000000pt" viewBox="0 0 983.000000 983.000000"
 preserveAspectRatio="xMidYMid meet">
<metadata>
Created by potrace 1.14, written by Peter Selinger 2001-2017
</metadata>
<g transform="translate(0.000000,983.000000) scale(0.100000,-0.100000)"
fill="#000000" stroke="none">
<path d="M8595 7977 c-105 -78 -251 -187 -325 -242 -74 -54 -139 -103 -145
-107 -5 -5 -30 -24 -55 -42 -664 -495 -810 -602 -811 -592 0 6 -2 20 -4 31 -2
11 -7 40 -10 65 -3 25 -8 59 -10 75 -4 26 -9 64 -30 230 -3 22 -8 67 -11 100
-3 33 -7 62 -9 65 -2 3 -6 37 -10 75 -4 39 -9 79 -11 90 -2 11 -7 42 -10 70
-3 27 -6 51 -7 51 -1 1 -57 -41 -124 -94 -430 -342 -525 -417 -533 -420 -4 -2
-38 47 -75 108 l-67 111 -46 -27 c-26 -15 -60 -35 -76 -43 -17 -9 -35 -20 -40
-24 -6 -5 -71 -43 -144 -86 l-133 -78 -153 103 -152 102 -630 7 c-346 4 -642
7 -659 7 -73 1 -83 -4 -160 -69 -44 -36 -112 -92 -152 -124 l-72 -57 -216 120
c-119 66 -222 117 -229 115 -6 -3 -38 -52 -70 -111 -37 -68 -62 -104 -69 -99
-7 4 -155 114 -330 245 -175 132 -324 241 -331 244 -7 3 -13 -1 -13 -8 0 -21
-15 -173 -28 -298 -4 -30 -8 -75 -10 -100 -3 -25 -7 -63 -10 -85 -2 -22 -7
-67 -10 -100 -3 -33 -8 -73 -10 -90 -2 -16 -7 -61 -10 -100 -8 -73 -12 -86
-23 -69 -4 5 -59 46 -122 90 -196 138 -209 147 -440 309 -124 88 -319 226
-435 307 -115 81 -214 151 -220 155 -5 5 -48 35 -95 68 -47 33 -112 79 -145
102 -104 74 -98 74 -90 1 3 -34 8 -79 10 -98 2 -19 7 -69 10 -110 3 -41 7 -95
10 -120 2 -25 7 -79 10 -120 3 -41 8 -93 10 -115 2 -22 7 -76 11 -120 3 -44 8
-89 10 -100 2 -11 7 -40 10 -65 34 -270 132 -557 253 -740 137 -208 326 -368
601 -506 50 -26 78 -45 70 -48 -8 -3 -109 -28 -225 -55 -115 -27 -289 -68
-385 -91 -96 -23 -182 -43 -190 -45 -76 -16 -84 -24 -46 -48 13 -9 29 -22 37
-29 13 -12 167 -143 227 -193 14 -11 30 -25 36 -30 6 -6 43 -37 81 -70 39 -32
72 -61 75 -64 3 -4 57 -49 120 -102 161 -135 196 -166 190 -172 -3 -2 -59 -31
-125 -65 -66 -33 -167 -85 -225 -115 -58 -31 -154 -80 -215 -111 -60 -31 -227
-117 -370 -191 -143 -74 -306 -158 -362 -187 -56 -29 -101 -54 -99 -56 2 -2
125 -5 272 -7 148 -2 444 -7 658 -10 215 -3 391 -7 394 -9 2 -2 -4 -12 -12
-23 -9 -10 -147 -205 -308 -433 -161 -228 -301 -426 -311 -440 -106 -147 -245
-350 -240 -350 5 0 235 99 336 144 29 13 198 88 377 166 179 78 345 152 370
163 25 11 47 21 50 22 6 2 33 14 105 45 76 33 104 45 179 79 38 17 70 30 72
29 1 -2 -11 -55 -28 -118 -16 -63 -31 -122 -33 -130 -1 -8 -8 -35 -15 -60 -7
-25 -14 -52 -15 -60 -2 -8 -11 -42 -20 -75 -33 -125 -107 -409 -110 -424 -2
-9 -17 -67 -34 -130 -17 -63 -29 -116 -27 -118 1 -2 52 29 112 69 212 139 482
317 748 493 149 97 276 179 283 182 10 4 13 -15 14 -83 0 -49 2 -129 4 -179 1
-49 6 -193 10 -320 3 -126 7 -231 8 -232 1 -1 72 18 157 42 85 24 272 75 415
115 143 40 305 85 359 101 l100 28 113 113 113 113 1 -45 c2 -68 7 -198 14
-360 7 -184 13 -321 21 -535 8 -203 11 -288 13 -296 0 -4 38 -22 84 -42 190
-80 254 -83 392 -16 116 57 108 35 111 280 6 513 14 1013 17 1015 1 1 41 -34
88 -79 48 -45 99 -94 115 -109 27 -25 68 -39 244 -82 8 -2 116 -30 240 -61
124 -31 232 -58 240 -60 24 -6 293 -74 315 -80 20 -6 20 -1 23 402 2 224 5
409 7 411 4 4 152 -87 450 -275 39 -25 138 -87 220 -138 83 -52 191 -120 240
-152 50 -31 104 -65 120 -74 17 -9 53 -31 80 -48 27 -17 50 -29 52 -27 2 2
-32 131 -77 287 -45 156 -83 291 -85 299 -2 8 -36 127 -75 264 -39 136 -70
250 -67 252 4 4 599 -238 629 -256 10 -5 22 -10 28 -10 5 0 33 -11 62 -24 29
-13 166 -70 303 -126 138 -56 266 -109 285 -117 19 -8 44 -19 55 -23 11 -4 48
-19 83 -33 l62 -26 -22 32 c-12 18 -32 46 -45 62 -32 41 -22 27 -193 260 -149
202 -260 352 -300 405 -10 14 -38 52 -63 85 -24 33 -95 130 -158 215 -135 181
-132 177 -116 177 13 0 339 13 477 18 47 2 153 6 235 9 134 5 264 11 510 21
44 2 85 4 90 5 6 0 -53 31 -130 69 -77 37 -221 108 -320 156 -99 49 -182 89
-185 90 -3 1 -126 61 -275 134 -148 73 -322 158 -385 188 -63 31 -117 57 -119
59 -2 2 3 9 10 16 15 14 358 321 478 428 40 36 83 74 95 85 12 11 53 47 91 80
37 33 74 66 82 73 26 26 21 30 -87 48 -14 3 -33 7 -42 10 -9 3 -27 7 -40 9
-45 9 -594 126 -647 138 l-54 12 69 34 c233 116 421 280 547 477 49 77 127
234 127 256 0 8 4 18 9 23 11 13 50 138 66 215 25 113 44 216 50 265 3 32 8
62 10 65 1 3 6 40 10 83 3 43 8 88 10 100 2 12 6 63 10 112 3 50 8 104 10 120
3 17 7 62 10 100 3 39 8 88 10 110 11 98 16 143 21 185 2 25 7 53 10 63 3 9 2
17 -3 17 -4 0 -94 -65 -198 -143z"/>
</g>
</svg>
